<?xml version="1.0" standalone="no"?>
<!DOCTYPE svg PUBLIC "-//W3C//DTD SVG 20010904//EN"
 "http://www.w3.org/TR/2001/REC-SVG-20010904/DTD/svg10.dtd">
<svg version="1.0" xmlns="http://www.w3.org/2000/svg"
 width="531.000000pt" height="89.000000pt" viewBox="0 0 531.000000 89.000000"
 preserveAspectRatio="xMidYMid meet">

<g transform="translate(0.000000,89.000000) scale(0.100000,-0.100000)"
fill="#000000" stroke="none">
<path d="M1600 680 l0 -50 55 0 55 0 0 50 0 50 -55 0 -55 0 0 -50z"/>
<path d="M2310 470 l0 -260 55 0 55 0 0 260 0 260 -55 0 -55 0 0 -260z"/>
<path d="M80 460 l0 -253 132 7 c156 7 194 18 249 65 56 47 79 100 79 181 0
77 -22 130 -71 177 -50 47 -103 62 -255 69 l-134 7 0 -253z m267 130 c49 -29
68 -65 68 -130 0 -98 -55 -150 -157 -150 l-58 0 0 150 0 150 58 0 c39 0 67 -6
89 -20z"/>
<path d="M2800 460 l0 -250 60 0 60 0 0 105 0 105 105 0 105 0 0 50 0 50 -105
0 -105 0 0 45 0 45 110 0 110 0 0 50 0 50 -170 0 -170 0 0 -250z"/>
<path d="M760 593 c-14 -2 -44 -6 -67 -9 -43 -5 -43 -6 -43 -46 0 -34 2 -39
18 -32 9 4 50 9 90 12 78 5 112 -10 112 -48 0 -14 -14 -18 -81 -24 -140 -12
-195 -63 -168 -159 24 -87 148 -110 221 -40 l28 27 0 -32 0 -32 61 0 61 0 -4
144 c-4 159 -12 182 -74 217 -30 17 -111 29 -154 22z m110 -240 c0 -40 -36
-73 -80 -73 -43 0 -60 14 -60 52 0 35 22 47 88 48 50 0 52 -1 52 -27z"/>
<path d="M1307 585 c-21 -7 -46 -20 -56 -29 -24 -22 -31 -20 -31 9 0 24 -3 25
-55 25 l-55 0 0 -190 0 -190 54 0 54 0 4 120 c5 141 19 173 81 178 58 5 67
-19 67 -170 l0 -128 55 0 55 0 0 148 c0 128 -3 151 -20 179 -31 52 -89 70
-153 48z"/>
<path d="M1961 589 c-45 -9 -104 -47 -121 -78 -35 -67 -30 -183 12 -236 43
-55 131 -80 226 -65 96 16 112 26 112 71 l0 40 -32 -17 c-43 -22 -152 -31
-182 -14 -22 11 -46 48 -46 70 0 6 58 10 141 10 l142 0 -6 55 c-3 31 -15 70
-26 88 -38 62 -131 94 -220 76z m113 -91 c9 -12 16 -30 16 -40 0 -16 -10 -18
-81 -18 -79 0 -80 0 -74 23 17 57 108 80 139 35z"/>
<path d="M3415 585 c-22 -8 -47 -23 -57 -35 -22 -27 -28 -25 -28 10 0 30 -1
30 -55 30 l-55 0 0 -190 0 -190 55 0 55 0 0 88 c1 162 23 202 112 202 l49 0
-3 47 c-3 55 -13 60 -73 38z"/>
<path d="M3680 593 c-14 -2 -44 -6 -67 -9 -43 -5 -43 -6 -43 -46 0 -34 2 -39
18 -32 9 4 50 9 90 12 78 5 112 -10 112 -48 0 -14 -14 -18 -81 -24 -140 -12
-195 -63 -168 -159 24 -87 148 -110 221 -40 l28 27 0 -32 0 -32 61 0 61 0 -4
144 c-4 159 -12 182 -74 217 -30 17 -111 29 -154 22z m110 -240 c0 -40 -36
-73 -80 -73 -43 0 -60 14 -60 52 0 35 22 47 88 48 50 0 52 -1 52 -27z"/>
<path d="M4227 585 c-21 -7 -46 -20 -56 -29 -24 -22 -31 -20 -31 9 0 24 -3 25
-55 25 l-55 0 0 -190 0 -190 54 0 54 0 4 120 c5 141 19 173 81 178 58 5 67
-19 67 -170 l0 -128 55 0 55 0 0 148 c0 128 -3 151 -20 179 -31 52 -89 70
-153 48z"/>
<path d="M4653 590 c-89 -18 -134 -60 -153 -143 -23 -104 29 -202 120 -227 25
-7 51 -14 58 -16 17 -5 36 -49 29 -68 -5 -11 -20 -16 -52 -16 -37 0 -45 -3
-45 -19 0 -14 9 -20 38 -23 88 -11 130 28 99 91 -17 35 -16 36 36 45 36 7 37
8 37 51 0 44 -1 44 -26 35 -14 -6 -48 -10 -75 -10 -39 0 -55 5 -74 24 -47 47
-41 149 11 182 24 16 110 16 147 0 15 -7 17 -2 17 37 0 45 -1 46 -37 52 -75
12 -89 13 -130 5z"/>
<path d="M5050 593 c-14 -2 -44 -6 -67 -9 -43 -5 -43 -6 -43 -46 0 -34 2 -39
18 -32 9 4 50 9 90 12 78 5 112 -10 112 -48 0 -14 -14 -18 -81 -24 -140 -12
-195 -63 -168 -159 24 -87 148 -110 221 -40 l28 27 0 -32 0 -32 61 0 61 0 -4
144 c-4 159 -12 182 -74 217 -30 17 -111 29 -154 22z m110 -240 c0 -40 -36
-73 -80 -73 -43 0 -60 14 -60 52 0 35 22 47 88 48 50 0 52 -1 52 -27z"/>
<path d="M1600 400 l0 -190 55 0 55 0 0 190 0 190 -55 0 -55 0 0 -190z"/>
</g>
</svg>
