<?xml version="1.0" standalone="no"?>
<!DOCTYPE svg PUBLIC "-//W3C//DTD SVG 20010904//EN"
 "http://www.w3.org/TR/2001/REC-SVG-20010904/DTD/svg10.dtd">
<svg version="1.0" xmlns="http://www.w3.org/2000/svg"
 width="525.000000pt" height="276.000000pt" viewBox="0 0 525.000000 276.000000"
 preserveAspectRatio="xMidYMid meet">

<g transform="translate(0.000000,276.000000) scale(0.100000,-0.100000)"
fill="#000000" stroke="none">
<path d="M1670 1575 l0 -45 50 0 50 0 0 45 0 45 -50 0 -50 0 0 -45z"/>
<path d="M2300 1385 l0 -235 50 0 50 0 0 235 0 235 -50 0 -50 0 0 -235z"/>
<path d="M300 1375 l0 -228 126 7 c135 7 181 20 227 64 39 36 55 69 62 128 9
65 -8 125 -48 171 -50 56 -95 72 -240 79 l-127 7 0 -228z m247 115 c42 -25 56
-54 56 -115 0 -28 -6 -61 -12 -74 -20 -37 -70 -61 -128 -61 l-53 0 0 135 0
135 53 0 c34 0 63 -7 84 -20z"/>
<path d="M2730 1375 l0 -225 55 0 55 0 0 95 0 95 95 0 95 0 0 45 0 45 -95 0
-95 0 0 40 0 40 100 0 100 0 0 45 0 45 -155 0 -155 0 0 -225z"/>
<path d="M905 1493 c-95 -11 -95 -11 -95 -50 0 -30 3 -34 18 -28 31 14 138 18
161 6 11 -7 21 -21 21 -31 0 -16 -7 -20 -34 -20 -76 0 -140 -19 -168 -50 -62
-68 -18 -164 77 -172 44 -3 65 3 94 28 l31 26 0 -26 c0 -25 2 -26 56 -26 l57
0 -5 129 c-5 141 -14 169 -66 194 -31 16 -102 26 -147 20z m105 -213 c0 -41
-31 -70 -75 -70 -24 0 -37 6 -45 19 -26 50 1 81 71 81 48 0 49 -1 49 -30z"/>
<path d="M1406 1489 c-16 -4 -39 -18 -52 -30 l-24 -22 0 26 c0 26 -2 27 -50
27 l-50 0 0 -170 0 -170 50 0 50 0 0 106 c0 132 14 164 72 164 47 0 58 -30 58
-157 l0 -113 50 0 50 0 0 120 c0 126 -10 170 -46 201 -24 21 -71 29 -108 18z"/>
<path d="M1990 1491 c-100 -20 -153 -103 -135 -211 8 -47 43 -94 89 -117 37
-19 141 -21 204 -4 39 11 42 14 42 46 0 41 3 39 -43 20 -41 -17 -129 -20 -157
-5 -10 5 -23 23 -28 40 l-11 30 130 0 129 0 0 28 c-1 37 -24 99 -47 124 -37
42 -108 62 -173 49z m92 -78 c10 -9 18 -24 18 -35 0 -16 -9 -18 -75 -18 -67 0
-74 2 -68 18 18 51 86 71 125 35z"/>
<path d="M3286 1490 c-16 -5 -39 -19 -52 -31 l-24 -22 0 26 c0 26 -2 27 -50
27 l-50 0 0 -170 0 -170 50 0 50 0 0 104 c0 89 3 107 21 130 17 22 28 26 70
26 l50 0 -3 42 c-3 47 -13 53 -62 38z"/>
<path d="M3515 1493 c-95 -11 -95 -11 -95 -50 0 -30 3 -34 18 -28 31 14 138
18 161 6 11 -7 21 -21 21 -31 0 -16 -7 -20 -34 -20 -76 0 -140 -19 -168 -50
-62 -68 -18 -164 77 -172 44 -3 65 3 94 28 l31 26 0 -26 c0 -25 2 -26 56 -26
l57 0 -5 129 c-5 141 -14 169 -66 194 -31 16 -102 26 -147 20z m105 -213 c0
-41 -31 -70 -75 -70 -24 0 -37 6 -45 19 -26 50 1 81 71 81 48 0 49 -1 49 -30z"/>
<path d="M4016 1489 c-16 -4 -39 -18 -52 -30 l-24 -22 0 26 c0 26 -2 27 -50
27 l-50 0 0 -170 0 -170 50 0 50 0 0 106 c0 132 14 164 72 164 47 0 58 -30 58
-157 l0 -113 50 0 50 0 0 120 c0 126 -10 170 -46 201 -24 21 -71 29 -108 18z"/>
<path d="M4375 1486 c-62 -18 -110 -67 -120 -125 -19 -113 34 -191 147 -215
31 -7 51 -36 42 -61 -5 -13 -16 -16 -45 -13 -31 3 -39 0 -39 -13 0 -18 45 -29
87 -21 36 7 50 44 29 77 -18 27 -18 27 37 39 24 6 27 11 27 47 0 36 -2 39 -19
29 -11 -5 -40 -10 -66 -10 -66 0 -95 31 -95 100 0 69 29 100 95 100 26 0 55
-5 66 -10 17 -10 19 -7 19 29 0 29 -5 41 -17 45 -48 13 -103 14 -148 2z"/>
<path d="M4745 1493 c-95 -11 -95 -11 -95 -50 0 -30 3 -34 18 -28 31 14 138
18 161 6 11 -7 21 -21 21 -31 0 -16 -7 -20 -34 -20 -76 0 -140 -19 -168 -50
-62 -68 -18 -164 77 -172 44 -3 65 3 94 28 l31 26 0 -26 c0 -25 2 -26 56 -26
l57 0 -5 129 c-5 141 -14 169 -66 194 -31 16 -102 26 -147 20z m105 -213 c0
-41 -31 -70 -75 -70 -24 0 -37 6 -45 19 -26 50 1 81 71 81 48 0 49 -1 49 -30z"/>
<path d="M1670 1320 l0 -170 50 0 50 0 0 170 0 170 -50 0 -50 0 0 -170z"/>
</g>
</svg>
